<?xml version="1.0" encoding="utf-8" standalone="no"?>
<!DOCTYPE svg PUBLIC "-//W3C//DTD SVG 1.1//EN" "http://www.w3.org/Graphics/SVG/1.1/DTD/svg11-flat-20030114.dtd">
<!-- Created by SVGDeveloper 1.0 -->
<svg width="200" height="200" version="1.1" xmlns="http://www.w3.org/2000/svg" xmlns:xlink="http://www.w3.org/1999/xlink">
	<g id="eye">
<g id="leftEye" transform="matrix(0.087,0,0,0.079,75.069,54.505)" xmlns="http://www.w3.org/2000/svg">
<path d="M150.7236 389.1302C133.4781 442.1238 43.59234 456.9322 -15.80834 456.9322C-75.20902 456.9322 -121.296 391.64 -165.5439 343.8186C-193.8865 313.1871 -66.58629 304.0828 -7.185608 304.0828C52.21507 304.0828 32.87956 298.7715 150.7236 389.1302Z" sodipodi:nodetypes="csssc" style="opacity:1.0000000;fill:#f6f0cd;fill-opacity:1.0000000;fill-rule:nonzero;stroke:#000000;stroke-width:15.794737;stroke-miterlimit:4.0000000;stroke-dashoffset:0.00000000;stroke-opacity:1.0000000" xmlns:sodipodi="http://inkscape.sourceforge.net/DTD/sodipodi-0.dtd" xmlns="http://www.w3.org/2000/svg" />
<g id="leftEyeball">
<path d="M -173.89180 302.90289 A 45.269352 45.269352 0 1 1  -264.43050,302.90289 A 45.269352 45.269352 0 1 1  -173.89180 302.90289 z" sodipodi:cx="-219.16115" sodipodi:cy="302.90289" sodipodi:rx="45.269352" sodipodi:ry="45.269352" sodipodi:type="arc" style="opacity:1.0000000;fill:#5e583a;fill-opacity:1.0000000;fill-rule:nonzero;stroke:#000000;stroke-width:3.3750000;stroke-miterlimit:4.0000000;stroke-dasharray:none;stroke-dashoffset:0.00000000;stroke-opacity:1.0000000" transform="matrix(1.459078,0.000000,0.000000,1.459078,316.1803,-60.01418)" xmlns:sodipodi="http://inkscape.sourceforge.net/DTD/sodipodi-0.dtd" />
<path d="M -327.66388 225.29829 A 19.401152 19.401152 0 1 1  -366.46618,225.29829 A 19.401152 19.401152 0 1 1  -327.66388 225.29829 z" sodipodi:cx="-347.06503" sodipodi:cy="225.29829" sodipodi:rx="19.401152" sodipodi:ry="19.401152" sodipodi:type="arc" style="opacity:1.0000000;fill:#1e1a0b;fill-opacity:1.0000000;fill-rule:nonzero;stroke:#000000;stroke-width:3.3750000;stroke-miterlimit:4.0000000;stroke-dasharray:none;stroke-dashoffset:0.00000000;stroke-opacity:1.0000000" transform="matrix(1.681467,0.000000,0.000000,1.681467,578.5485,3.112950)" xmlns:sodipodi="http://inkscape.sourceforge.net/DTD/sodipodi-0.dtd" />
<g id="leftRetina" transform="matrix(0.379871,0.000000,0.000000,0.379871,78.65016,251.1349)">
<path d="M -173.89180 299.31009 A 58.922016 33.053814 0 1 1  -291.73583,299.31009 A 58.922016 33.053814 0 1 1  -173.89180 299.31009 z" sodipodi:cx="-232.81381" sodipodi:cy="299.31009" sodipodi:rx="58.922016" sodipodi:ry="33.053814" sodipodi:type="arc" style="opacity:1.0000000;fill:#ffffff;fill-opacity:1.0000000;fill-rule:nonzero;stroke:none;stroke-width:3.3750000;stroke-miterlimit:4.0000000;stroke-dasharray:none;stroke-dashoffset:0.00000000;stroke-opacity:1.0000000" transform="translate(-70.41899,-63.23338)" xmlns:sodipodi="http://inkscape.sourceforge.net/DTD/sodipodi-0.dtd" />
<path d="M -173.89180 299.31009 A 58.922016 33.053814 0 1 1  -291.73583,299.31009 A 58.922016 33.053814 0 1 1  -173.89180 299.31009 z" sodipodi:cx="-232.81381" sodipodi:cy="299.31009" sodipodi:rx="58.922016" sodipodi:ry="33.053814" sodipodi:type="arc" style="opacity:1.0000000;fill:#ffffff;fill-opacity:1.0000000;fill-rule:nonzero;stroke:none;stroke-width:3.3750000;stroke-miterlimit:4.0000000;stroke-dasharray:none;stroke-dashoffset:0.00000000;stroke-opacity:1.0000000" transform="matrix(0.549488,0.000000,0.000000,0.549488,-132.1908,127.6572)" xmlns:sodipodi="http://inkscape.sourceforge.net/DTD/sodipodi-0.dtd" />
</g>
</g>
</g>

	<g id="rightEye" transform="matrix(0.081,0,0,0.079,117.463,54.171)" xmlns="http://www.w3.org/2000/svg">
<path d="M179.4695 343.827C162.224 396.8206 43.59234 456.9322 -15.80834 456.9322C-75.20902 456.9322 -224.2095 437.7001 -170.6132 390.2332C-137.2678 360.7013 -87.14423 301.6296 -27.74355 301.6296C31.65713 301.6296 122.3262 276.3163 179.4695 343.827Z" sodipodi:nodetypes="csssc" style="opacity:1.0000000;fill:#f6f0cd;fill-opacity:1.0000000;fill-rule:nonzero;stroke:#000000;stroke-width:15.794737;stroke-miterlimit:4.0000000;stroke-dashoffset:0.00000000;stroke-opacity:1.0000000" xmlns:sodipodi="http://inkscape.sourceforge.net/DTD/sodipodi-0.dtd" xmlns="http://www.w3.org/2000/svg" />
<g id="rightEyeball">
<path d="M -173.89180 302.90289 A 45.269352 45.269352 0 1 1  -264.43050,302.90289 A 45.269352 45.269352 0 1 1  -173.89180 302.90289 z" sodipodi:cx="-219.16115" sodipodi:cy="302.90289" sodipodi:rx="45.269352" sodipodi:ry="45.269352" sodipodi:type="arc" style="opacity:1.0000000;fill:#5e583a;fill-opacity:1.0000000;fill-rule:nonzero;stroke:#000000;stroke-width:3.3750000;stroke-miterlimit:4.0000000;stroke-dasharray:none;stroke-dashoffset:0.00000000;stroke-opacity:1.0000000" transform="matrix(1.459078,0.000000,0.000000,1.459078,316.1803,-60.01418)" xmlns:sodipodi="http://inkscape.sourceforge.net/DTD/sodipodi-0.dtd" />
<path d="M -327.66388 225.29829 A 19.401152 19.401152 0 1 1  -366.46618,225.29829 A 19.401152 19.401152 0 1 1  -327.66388 225.29829 z" sodipodi:cx="-347.06503" sodipodi:cy="225.29829" sodipodi:rx="19.401152" sodipodi:ry="19.401152" sodipodi:type="arc" style="opacity:1.0000000;fill:#1e1a0b;fill-opacity:1.0000000;fill-rule:nonzero;stroke:#000000;stroke-width:3.3750000;stroke-miterlimit:4.0000000;stroke-dasharray:none;stroke-dashoffset:0.00000000;stroke-opacity:1.0000000" transform="matrix(1.681467,0.000000,0.000000,1.681467,578.5485,3.112950)" xmlns:sodipodi="http://inkscape.sourceforge.net/DTD/sodipodi-0.dtd" />
<g id="rightRetina" transform="matrix(0.379871,0.000000,0.000000,0.379871,78.65016,251.1349)">
<path d="M -173.89180 299.31009 A 58.922016 33.053814 0 1 1  -291.73583,299.31009 A 58.922016 33.053814 0 1 1  -173.89180 299.31009 z" sodipodi:cx="-232.81381" sodipodi:cy="299.31009" sodipodi:rx="58.922016" sodipodi:ry="33.053814" sodipodi:type="arc" style="opacity:1.0000000;fill:#ffffff;fill-opacity:1.0000000;fill-rule:nonzero;stroke:none;stroke-width:3.3750000;stroke-miterlimit:4.0000000;stroke-dasharray:none;stroke-dashoffset:0.00000000;stroke-opacity:1.0000000" transform="translate(-70.41899,-63.23338)" xmlns:sodipodi="http://inkscape.sourceforge.net/DTD/sodipodi-0.dtd" />
<path d="M -173.89180 299.31009 A 58.922016 33.053814 0 1 1  -291.73583,299.31009 A 58.922016 33.053814 0 1 1  -173.89180 299.31009 z" sodipodi:cx="-232.81381" sodipodi:cy="299.31009" sodipodi:rx="58.922016" sodipodi:ry="33.053814" sodipodi:type="arc" style="opacity:1.0000000;fill:#ffffff;fill-opacity:1.0000000;fill-rule:nonzero;stroke:none;stroke-width:3.3750000;stroke-miterlimit:4.0000000;stroke-dasharray:none;stroke-dashoffset:0.00000000;stroke-opacity:1.0000000" transform="matrix(0.549488,0.000000,0.000000,0.549488,-132.1908,127.6572)" xmlns:sodipodi="http://inkscape.sourceforge.net/DTD/sodipodi-0.dtd" />
</g>
</g>
	</g>
</g>

</svg>