<?xml version="1.0" encoding="utf-8" standalone="no"?>
<!DOCTYPE svg PUBLIC "-//W3C//DTD SVG 1.1//EN" "http://www.w3.org/Graphics/SVG/1.1/DTD/svg11-flat-20030114.dtd">
<!-- Created by SVGDeveloper 1.0 -->
<svg width="200" height="200" version="1.1" xmlns="http://www.w3.org/2000/svg" xmlns:xlink="http://www.w3.org/1999/xlink">
		<g id="face" transform="matrix(0.446,0,0,0.442,-51.27758,-39.73814)">
		<path id="outline" d="M 439.75942 278.73696 C 439.75942 318.42175 426.25047 354.36815 406.74154 380.39334 C 387.23260 406.41851 381.84340 437.98332 330.53813 437.98332 C 290.72984 437.98332 278.15503 406.41851 258.64609 380.39334 C 239.13716 354.36815 228.50245 319.96783 228.50245 280.28303 C 228.50245 200.91340 272.47839 161.23478 331.97525 161.23478 C 391.47211 161.23478 439.75942 199.36731 439.75942 278.73696 z" sodipodi:nodetypes="csssssc" style="opacity:1.0000000;fill:#e5d994;fill-opacity:1.0000000;fill-rule:nonzero;stroke:#000000;stroke-width:3.5006044;stroke-miterlimit:4.0000000;stroke-dashoffset:0.00000000;stroke-opacity:1.0000000" xmlns:sodipodi="http://inkscape.sourceforge.net/DTD/sodipodi-0.dtd" />
		</g>

		<g id="ear" transform="matrix(0.446,0,0,0.442,-51.27758,-39.73814)">
		<g id="leftear">
			<path id="leftInnerEar" d="M 229.32837,283.89543 C 229.32837,283.89543 208.97386,256.02823 216.96291,305.81931 C 224.95197,355.61040 236.05550,319.84013 236.05550,319.84013 C 236.05550,319.84013 234.50124,307.78391 234.50124,307.78391" sodipodi:nodetypes="cscc" style="fill:#e5d994;fill-opacity:1.0000000;fill-rule:evenodd;stroke:#000000;stroke-width:0.45361960px;stroke-linecap:butt;stroke-linejoin:miter;stroke-opacity:1.0000000" xmlns:sodipodi="http://inkscape.sourceforge.net/DTD/sodipodi-0.dtd" />
			<path id="leftEarFlap" d="M 233.13484,277.99394 C 233.13484,277.99394 206.70950,252.40687 214.69856,302.19794 C 222.68761,351.98903 233.64751,340.01879 233.64751,340.01879 C 233.64751,340.01879 236.51193,339.21814 237.33147,334.53436 C 237.42475,316.78372 234.84372,316.63340 229.92737,324.24038 C 225.01103,331.84734 224.53125,322.94423 224.53125,322.94423 C 224.53125,322.94423 209.78222,281.45165 217.77128,280.06857 C 225.76033,278.68549 229.44759,287.67555 229.44759,287.67555" sodipodi:nodetypes="csccscsc" style="fill:#e5d994;fill-opacity:1.0000000;fill-rule:evenodd;stroke:#000000;stroke-width:0.85400000;stroke-linecap:butt;stroke-linejoin:miter;stroke-opacity:1.0000000;stroke-miterlimit:4.0000000;stroke-dasharray:none" xmlns:sodipodi="http://inkscape.sourceforge.net/DTD/sodipodi-0.dtd" />
		</g>
		<g id="rightear">
			<path id="rightInnerEar" d="M 436.51395,281.72853 C 436.51395,281.72853 458.67483,253.86133 449.97678,303.65241 C 441.27874,353.44350 429.18983,317.67323 429.18983,317.67323 C 429.18983,317.67323 430.88202,305.61701 430.88202,305.61701" sodipodi:nodetypes="cscc" style="fill:#e5d994;fill-opacity:1.0000000;fill-rule:evenodd;stroke:#000000;stroke-width:0.47332004px;stroke-linecap:butt;stroke-linejoin:miter;stroke-opacity:1.0000000" xmlns:sodipodi="http://inkscape.sourceforge.net/DTD/sodipodi-0.dtd" />
			<path id="rightEarFlap" d="M 434.65327,273.45910 C 434.65327,273.45910 456.46822,247.87203 449.87300,297.66310 C 443.27779,347.45419 434.23004,335.48395 434.23004,335.48395 C 434.23004,335.48395 431.86538,334.68330 431.18882,329.99952 C 431.11181,312.24888 433.24254,312.09856 437.30114,319.70554 C 441.35973,327.31250 441.75580,318.40939 441.75580,318.40939 C 441.75580,318.40939 453.93159,276.91681 447.33637,275.53373 C 440.74116,274.15065 437.69721,283.14071 437.69721,283.14071" sodipodi:nodetypes="csccscsc" style="fill:#e5d994;fill-opacity:1.0000000;fill-rule:evenodd;stroke:#000000;stroke-width:0.77593374;stroke-linecap:butt;stroke-linejoin:miter;stroke-miterlimit:4.0000000;stroke-dasharray:none;stroke-opacity:1.0000000" xmlns:sodipodi="http://inkscape.sourceforge.net/DTD/sodipodi-0.dtd" />
		</g>
	</g>
		<g id="hair" transform="matrix(0.446,0,0,0.442,-51.27758,-39.73814)">
		<path id="hairInner" d="M 226.50244,277.19087 C 226.50244,277.19087 203.86961,226.64346 226.66180,178.24169 C 246.35215,136.42702 303.89294,122.58275 334.84950,122.58275 C 363.59195,122.58275 419.45185,126.30607 439.75942,183.45101 C 459.06274,237.77003 440.38077,276.94002 440.38077,276.94002 C 440.38077,276.94002 435.84401,280.49004 430.85811,285.85162 C 425.93455,270.55127 424.47201,221.19912 424.47201,221.19912 C 424.47201,221.19912 408.05883,232.28910 415.24444,216.82829 C 395.25864,192.10520 408.15146,186.06990 395.21736,210.80720 C 379.20725,185.33319 373.76212,186.01406 370.18191,180.10801 C 365.27352,186.41163 356.41505,187.65697 352.40633,202.97897 C 337.63158,147.61516 349.56764,186.70122 324.65692,191.47827 C 328.96829,180.65571 312.35216,168.39409 306.41842,189.06424 C 286.12997,179.51011 284.97072,164.41618 274.29732,198.01026 C 265.67459,170.18080 264.10355,196.30716 251.80777,209.16329 C 241.80955,219.61716 251.53080,249.76218 241.73919,241.21293 C 232.20693,232.89012 236.55049,288.29192 236.55049,288.29192 L 226.50244,277.19087 z " sodipodi:nodetypes="csssccccccccccszcc" style="fill:#71270a;fill-opacity:1.0000000;fill-rule:evenodd;stroke:#000000;stroke-width:2.8370000;stroke-linecap:butt;stroke-linejoin:miter;stroke-opacity:1.0000000;stroke-miterlimit:4.0000000;stroke-dasharray:none" xmlns:sodipodi="http://inkscape.sourceforge.net/DTD/sodipodi-0.dtd" />
		</g>

	<g id="eyebrow">
		<g id="eyeBrowLeft" transform="matrix(0.4519999,0,0,0.216,-51.80458,13.54577)" xmlns="http://www.w3.org/2000/svg">
		<path id="leftEyeBrow" d="M 307.94524,247.20445 C 295.24241,239.58410 277.53849,240.15372 256.63648,249.95120 L 252.29329,259.10709 C 276.27445,248.20348 287.70921,246.88537 306.74756,257.76679 L 307.94524,247.20445 z " sodipodi:nodetypes="ccccc" style="fill:#000000;fill-opacity:1.0000000;fill-rule:nonzero;stroke:none;stroke-width:1.0000000px;stroke-linecap:butt;stroke-linejoin:miter;stroke-opacity:1.0000000" transform="matrix(0.6969999,-0.7329999,0.1529999,0.6349999,42.30769,306.2579)" xmlns:sodipodi="http://inkscape.sourceforge.net/DTD/sodipodi-0.dtd" />
	</g>
		<g id="eyeBrowRight" transform="matrix(0.4519999,0,0,0.216,-51.80458,13.54577)" xmlns="http://www.w3.org/2000/svg">
		<path id="rightEyeBrow" d="M 400.36604,252.05101 C 386.37657,246.37400 369.06622,246.97147 350.41207,254.61588 L 347.92734,261.61873 C 369.39542,253.10459 380.39028,251.99614 401.25154,260.09422 L 400.36604,252.05101 z " sodipodi:nodetypes="ccccc" style="fill:#000000;fill-opacity:1.0000000;fill-rule:nonzero;stroke:none;stroke-width:1.0000000px;stroke-linecap:butt;stroke-linejoin:miter;stroke-opacity:1.0000000" transform="matrix(0.698,0.681,-0.202,0.906,164.745,-231.342)" xmlns:sodipodi="http://inkscape.sourceforge.net/DTD/sodipodi-0.dtd" />
	</g>
	</g>
	
	<g id="eye">
	<g id="leftEye" transform="matrix(0.06999999,0,0,0.079,74.94467,54.5048)" xmlns="http://www.w3.org/2000/svg">
		<path d="M 150.72359,389.13020 C 133.47812,442.12379 43.592343,456.93217 -15.808342,456.93217 C -75.209024,456.93217 -116.53545,438.38875 -160.78345,390.56733 C -189.12601,359.93586 -66.586290,304.08282 -7.1856078,304.08282 C 52.215073,304.08282 32.879563,298.77149 150.72359,389.13020 z " sodipodi:nodetypes="csssc" style="opacity:1.0000000;fill:#f6f0cd;fill-opacity:1.0000000;fill-rule:nonzero;stroke:#000000;stroke-width:15.794737;stroke-miterlimit:4.0000000;stroke-dashoffset:0.00000000;stroke-opacity:1.0000000" xmlns:sodipodi="http://inkscape.sourceforge.net/DTD/sodipodi-0.dtd" />
		<g id="leftEyeball">
			<path d="M -173.89180 302.90289 A 45.269352 45.269352 0 1 1  -264.43050,302.90289 A 45.269352 45.269352 0 1 1  -173.89180 302.90289 z" sodipodi:cx="-219.16115" sodipodi:cy="302.90289" sodipodi:rx="45.269352" sodipodi:ry="45.269352" sodipodi:type="arc" style="opacity:1.0000000;fill:#5e583a;fill-opacity:1.0000000;fill-rule:nonzero;stroke:#000000;stroke-width:3.3750000;stroke-miterlimit:4.0000000;stroke-dasharray:none;stroke-dashoffset:0.00000000;stroke-opacity:1.0000000" transform="matrix(1.459078,0.000000,0.000000,1.459078,316.1803,-60.01418)" xmlns:sodipodi="http://inkscape.sourceforge.net/DTD/sodipodi-0.dtd" />
			<path d="M -327.66388 225.29829 A 19.401152 19.401152 0 1 1  -366.46618,225.29829 A 19.401152 19.401152 0 1 1  -327.66388 225.29829 z" sodipodi:cx="-347.06503" sodipodi:cy="225.29829" sodipodi:rx="19.401152" sodipodi:ry="19.401152" sodipodi:type="arc" style="opacity:1.0000000;fill:#1e1a0b;fill-opacity:1.0000000;fill-rule:nonzero;stroke:#000000;stroke-width:3.3750000;stroke-miterlimit:4.0000000;stroke-dasharray:none;stroke-dashoffset:0.00000000;stroke-opacity:1.0000000" transform="matrix(1.681467,0.000000,0.000000,1.681467,578.5485,3.112950)" xmlns:sodipodi="http://inkscape.sourceforge.net/DTD/sodipodi-0.dtd" />
			<g id="leftRetina" transform="matrix(0.379871,0.000000,0.000000,0.379871,78.65016,251.1349)">
				<path d="M -173.89180 299.31009 A 58.922016 33.053814 0 1 1  -291.73583,299.31009 A 58.922016 33.053814 0 1 1  -173.89180 299.31009 z" sodipodi:cx="-232.81381" sodipodi:cy="299.31009" sodipodi:rx="58.922016" sodipodi:ry="33.053814" sodipodi:type="arc" style="opacity:1.0000000;fill:#ffffff;fill-opacity:1.0000000;fill-rule:nonzero;stroke:none;stroke-width:3.3750000;stroke-miterlimit:4.0000000;stroke-dasharray:none;stroke-dashoffset:0.00000000;stroke-opacity:1.0000000" transform="translate(-70.41899,-63.23338)" xmlns:sodipodi="http://inkscape.sourceforge.net/DTD/sodipodi-0.dtd" />
				<path d="M -173.89180 299.31009 A 58.922016 33.053814 0 1 1  -291.73583,299.31009 A 58.922016 33.053814 0 1 1  -173.89180 299.31009 z" sodipodi:cx="-232.81381" sodipodi:cy="299.31009" sodipodi:rx="58.922016" sodipodi:ry="33.053814" sodipodi:type="arc" style="opacity:1.0000000;fill:#ffffff;fill-opacity:1.0000000;fill-rule:nonzero;stroke:none;stroke-width:3.3750000;stroke-miterlimit:4.0000000;stroke-dasharray:none;stroke-dashoffset:0.00000000;stroke-opacity:1.0000000" transform="matrix(0.549488,0.000000,0.000000,0.549488,-132.1908,127.6572)" xmlns:sodipodi="http://inkscape.sourceforge.net/DTD/sodipodi-0.dtd" />
			</g>
		</g>
	</g>

	<g id="rightEye" transform="matrix(0.06999999,0,0,0.079,117.275,54.17102)" xmlns="http://www.w3.org/2000/svg">
		<path d="M148.4345 373.3556C131.189 426.3492 43.59234 456.9322 -15.80834 456.9322C-75.20902 456.9322 -224.2095 437.7001 -170.6132 390.2332C-137.2678 360.7013 -87.14423 301.6296 -27.74355 301.6296C31.65713 301.6296 91.29115 305.8449 148.4345 373.3556Z" sodipodi:nodetypes="csssc" style="opacity:1.0000000;fill:#f6f0cd;fill-opacity:1.0000000;fill-rule:nonzero;stroke:#000000;stroke-width:15.794737;stroke-miterlimit:4.0000000;stroke-dashoffset:0.00000000;stroke-opacity:1.0000000" xmlns:sodipodi="http://inkscape.sourceforge.net/DTD/sodipodi-0.dtd" />
		<g id="rightEyeball">
			<path d="M -173.89180 302.90289 A 45.269352 45.269352 0 1 1  -264.43050,302.90289 A 45.269352 45.269352 0 1 1  -173.89180 302.90289 z" sodipodi:cx="-219.16115" sodipodi:cy="302.90289" sodipodi:rx="45.269352" sodipodi:ry="45.269352" sodipodi:type="arc" style="opacity:1.0000000;fill:#5e583a;fill-opacity:1.0000000;fill-rule:nonzero;stroke:#000000;stroke-width:3.3750000;stroke-miterlimit:4.0000000;stroke-dasharray:none;stroke-dashoffset:0.00000000;stroke-opacity:1.0000000" transform="matrix(1.459078,0.000000,0.000000,1.459078,316.1803,-60.01418)" xmlns:sodipodi="http://inkscape.sourceforge.net/DTD/sodipodi-0.dtd" />
			<path d="M -327.66388 225.29829 A 19.401152 19.401152 0 1 1  -366.46618,225.29829 A 19.401152 19.401152 0 1 1  -327.66388 225.29829 z" sodipodi:cx="-347.06503" sodipodi:cy="225.29829" sodipodi:rx="19.401152" sodipodi:ry="19.401152" sodipodi:type="arc" style="opacity:1.0000000;fill:#1e1a0b;fill-opacity:1.0000000;fill-rule:nonzero;stroke:#000000;stroke-width:3.3750000;stroke-miterlimit:4.0000000;stroke-dasharray:none;stroke-dashoffset:0.00000000;stroke-opacity:1.0000000" transform="matrix(1.681467,0.000000,0.000000,1.681467,578.5485,3.112950)" xmlns:sodipodi="http://inkscape.sourceforge.net/DTD/sodipodi-0.dtd" />
			<g id="rightRetina" transform="matrix(0.379871,0.000000,0.000000,0.379871,78.65016,251.1349)">
				<path d="M -173.89180 299.31009 A 58.922016 33.053814 0 1 1  -291.73583,299.31009 A 58.922016 33.053814 0 1 1  -173.89180 299.31009 z" sodipodi:cx="-232.81381" sodipodi:cy="299.31009" sodipodi:rx="58.922016" sodipodi:ry="33.053814" sodipodi:type="arc" style="opacity:1.0000000;fill:#ffffff;fill-opacity:1.0000000;fill-rule:nonzero;stroke:none;stroke-width:3.3750000;stroke-miterlimit:4.0000000;stroke-dasharray:none;stroke-dashoffset:0.00000000;stroke-opacity:1.0000000" transform="translate(-70.41899,-63.23338)" xmlns:sodipodi="http://inkscape.sourceforge.net/DTD/sodipodi-0.dtd" />
				<path d="M -173.89180 299.31009 A 58.922016 33.053814 0 1 1  -291.73583,299.31009 A 58.922016 33.053814 0 1 1  -173.89180 299.31009 z" sodipodi:cx="-232.81381" sodipodi:cy="299.31009" sodipodi:rx="58.922016" sodipodi:ry="33.053814" sodipodi:type="arc" style="opacity:1.0000000;fill:#ffffff;fill-opacity:1.0000000;fill-rule:nonzero;stroke:none;stroke-width:3.3750000;stroke-miterlimit:4.0000000;stroke-dasharray:none;stroke-dashoffset:0.00000000;stroke-opacity:1.0000000" transform="matrix(0.549488,0.000000,0.000000,0.549488,-132.1908,127.6572)" xmlns:sodipodi="http://inkscape.sourceforge.net/DTD/sodipodi-0.dtd" />
			</g>
		</g>
	</g>
	</g>
	
	<g id="nose">
	<path id="nose1" d="M 311.89364,313.05522 C 311.89364,313.05522 297.37522,329.19667 311.70345,335.17019 C 309.75226,326.47326 320.07959,334.95064 320.07959,334.95064 C 320.07959,334.95064 328.69820,345.68617 339.05851,335.13635 C 347.98887,326.25784 348.09463,334.76495 348.09463,334.76495 C 348.09463,334.76495 362.11704,323.92136 346.85125,311.03506" sodipodi:nodetypes="cccccc" style="fill:none;fill-opacity:0.75000000;fill-rule:evenodd;stroke:#000000;stroke-width:1.6900000;stroke-linecap:butt;stroke-linejoin:miter;stroke-opacity:1.0000000;stroke-miterlimit:4.0000000;stroke-dasharray:none" transform="matrix(0.433,0,0,0.456,-45.83551,-40.45013)" xmlns:sodipodi="http://inkscape.sourceforge.net/DTD/sodipodi-0.dtd" xmlns="http://www.w3.org/2000/svg" />
	</g>

	<g id="mouth">
	<path id="mouth1" d="M 40 115 Q 60 100 75 115" style="stroke:black; fill:none;" transform="matrix(0.433,0,0,0.456,73.164,83.55)" xmlns="http://www.w3.org/2000/svg" />
	</g>
</svg>