<svg width="200" height="200" xmlns="http://www.w3.org/2000/svg">
<g transform="matrix(0.2,0,0,0.196,19.05533,11.2559)" xmlns="http://www.w3.org/2000/svg">
<path id="hair1" fill="#000000" d="m 349.04227,34.51389 c -170.30437,-1.63833 -159.73703,42.97981 -216.46049,147.9138c-16.33535,27.89267 -40.67734,46.36322 -54.11481,75.76103c-19.08925,41.76321 -13.52841,137.09201 -13.52841,137.09201c4.35123,-39.16214 5.93841,-67.84018 38.3313,-92.8981l10.82244,36.97888c0,0 -13.70135,27.88007 -14.42995,47.35062c-0.85989,22.92908 16.23434,58.62515 16.23434,58.62515c0,0 -3.17189,66.45117 -10.37293,98.75952c-6.78315,30.43823 -13.61554,62.27551 -30.66426,88.38782c-18.60816,28.49994 -74.85944,69.44751 -74.85944,69.44751c33.87272,-4.61255 68.94755,-4.78552 111.83712,-22.54767c-6.86523,15.58392 -16.28359,33.72119 -27.95837,54.11475c44.10806,-3.71735 85.89528,-31.65424 127.16988,-64.93854c2.91171,20.74463 5.93587,41.48792 -9.92088,62.2326c0,0 56.59215,-60.88159 71.25066,-89.28931c59.95599,-116.18835 156.03229,-359.86472 156.03229,-359.86472l158.73691,295.82761c53.03015,73.70544 85.86121,113.37891 182.1875,95.60419c-55.73737,-18.98444 -82.95831,-37.30975 -106.42651,-73.95795c48.53497,24.4682 85.98743,23.67902 137.09583,3.60742c0,0 -71.64972,-16.92743 -93.80347,-43.29095c-19.61072,-23.33698 -23.45056,-88.38782 -23.45056,-88.38782c18.0387,62.17316 36.07739,61.97363 54.11481,68.54468c-3.77167,1.77283 -55.89648,-97.84909 -52.31042,-137.09076c7.18335,-78.62598 6.97382,-32.21481 0,-203.83363c-2.75012,-67.65582 -50.08936,-130.85436 -110.034,-162.34443c-82.5845,-43.38274 -145.59998,-52.54515 -225.47855,-1.80372l0,0 z" />
<path id="outline" fill="#e28c6a" d="M 264.2619 165.2918 L 213.7546 236.5425 C 207.075 257.171 198.2741 273.3308 193.9115 298.7751 C 191.0655 315.3832 193.5731 331.846 194.8144 348.3809 C 193.7651 354.0756 192.9506 359.8574 196.6175 367.3211 C 179.7442 406.3191 183.3707 451.3565 186.2458 493.5894 C 188.9581 533.4346 220.7398 586.7388 254.341 641.504 C 254.341 641.504 313.3853 723.5796 368.8841 728.0873 C 416.0768 731.9208 443.3217 708.1041 471.7018 683.8934 C 515.2341 646.7592 559.9312 634.4098 584.7202 580.3266 C 603.8372 538.6176 600.1445 476.8513 606.0879 431.3568 C 613.5327 374.3694 622.2767 302.5114 606.0879 247.3662 C 596.667 215.2739 556.4821 139.1366 556.4821 139.1366 L 381.5109 103.0592 L 264.2619 165.2918 Z" />
<path id="righteyebrow" fill="#000000" d="m 547.88647,353.9939 c -13.83307 -34.10318 -41.48697 -33.52139 -72.70367 -28.69882 c -18.27307 2.823 -52.29553 18.49481 -52.29553 18.49481 c -31.26828 15.72235 -25.73672 -2.66046 -2.55096 -12.11728 c 0 0 30.00986 -17.27847 46.55582 -17.2193c39.44968 0.14117 75.97269 -4.12112 80.99435 39.54059 z" />
<path id="lefteyebrow" fill="#000000" d="m226.58398,331.08014c-3.39447,-0.0101 -6.83963,0.18585 -10.33821,0.59189c-7.62512,0.88498 -15.84727,2.31686 -22.29425,6.43179c0.27605,3.07669 0.54865,6.15338 0.78917,9.23337c0.78441,-0.32364 1.73126,-0.73334 2.36754,-0.98648c6.75063,-2.6857 12.5096,-4.75323 19.76888,-4.45883c3.99081,0.16187 11.53778,1.21268 15.31003,2.52536c9.69147,3.37241 16.00526,4.92496 26.16122,6.39233c7.37595,1.06573 22.33371,1.26266 22.33371,1.26266c0,0 -15.60837,-12.00339 -24.26721,-15.31003c-9.87102,-3.76947 -19.64749,-5.6535 -29.83087,-5.68207z" />
<g id="righteye">
<path fill="#000000" d="m405.66803,398.63651c0,0 4.67007,-9.59048 8.29074,-13.39279c8.01077,-8.41254 28.69882,-19.77029 28.69882,-19.77029c-11.005,3.26962 -19.37543,8.88675 -28.0611,15.94379c13.39374,-25.21396 75.90488,-37.98877 95.66266,-13.39276c-23.70798,-11.89734 -34.57413,-10.56754 -45.28024,-8.2908c0,0 18.66742,2.99899 27.42328,6.37756c28.21329,10.88635 18.72391,14.44565 44.3237,4.78311c0,0 -11.67023,6.8558 -22.32129,16.90039c-5.62329,5.3031 -14.08459,12.7088 -21.36459,15.30603c-8.89136,3.17215 -18.62198,3.68558 -28.0611,3.82651c-14.1077,0.21066 -42.09158,-4.46423 -42.09158,-4.46423c-7.14066,-0.75735 -19.33813,1.05081 -17.2193,-3.82651z" id="path3837" />
<path fill="#eef2f4" d="m409.47009,396.85876c0,0 22.63412,-28.39365 50.95825,-29.53775c15.24707,-0.61584 43.29205,14.88159 43.29205,14.88159c0,0 -20.99564,15.23819 -34.72379,17.13644c-12.95114,1.79077 -31.11969,-3.6507 -44.19391,-3.60767c-5.78287,0.01907 -15.33261,1.12738 -15.33261,1.12738z" id="path3839" />
<path fill="#000000" d="m461.90527,367.30124c-0.50024,-0.01138 -0.98346,0.0202 -1.45996,0.03937c-5.2804,0.21335 -10.37714,1.33093 -15.15222,3.07779c-1.55267,2.82779 -2.44644,6.09534 -2.44644,9.54904c0,10.17014 7.6561,18.50772 17.51974,19.65051c1.20511,0.05417 2.39349,0.09384 3.55127,0.07892c0.26697,-0.00378 0.52509,-0.03195 0.78918,-0.03937c9.99805,-1.01538 17.79593,-9.42401 17.79593,-19.68997c0,-2.93857 -0.62854,-5.73846 -1.77563,-8.24689c-6.53098,-2.39426 -13.35196,-4.29626 -18.82187,-4.4194z" id="path3841" />
<path fill="#800000" d="m461.90588,367.30093c-0.50125,-0.01138 -0.98361,0.02017 -1.46091,0.03915c-4.31458,0.17426 -8.5181,0.96848 -12.50812,2.20969c-2.08093,2.94205 -3.31454,6.54068 -3.31454,10.41714c0,9.97141 8.10138,18.0336 18.07275,18.0336c9.97015,0 18.03238,-8.06219 18.03238,-18.0336c0,-3.31332 -0.88766,-6.44476 -2.44705,-9.11407c-5.76416,-1.97229 -11.58133,-3.44333 -16.37451,-3.55191l0,0z" id="path3843" />
<path fill="#000000" id="path3845" d="m470.0907,379.94785c0,4.09106 -3.31647,7.40753 -7.40753,7.40753c-4.09109,0 -7.40756,-3.31647 -7.40756,-7.40753c0,-4.09106 3.31647,-7.40753 7.40756,-7.40753c4.09106,0 7.40753,3.31647 7.40753,7.40753z" />
<path fill="#e6e6e6" d="m473.82184,379.54639c0,3.6203 -2.13272,6.55515 -4.76352,6.55515c-2.63083,0 -4.76352,-2.93484 -4.76352,-6.55515c0,-3.6203 2.13269,-6.55511 4.76352,-6.55511c2.6308,0 4.76352,2.93481 4.76352,6.55511z" id="path3847" />
<path fill="#e6e6e6" id="path3849" d="m463.1792,391.69107c0,2.89035 -1.74753,5.23346 -3.9032,5.23346c-2.1557,0 -3.90323,-2.34311 -3.90323,-5.23346c0,-2.89038 1.74753,-5.23346 3.90323,-5.23346c2.15567,0 3.9032,2.34308 3.9032,5.23346z" />
</g>
<path fill="#df7f59" d="m193.94026,357.12085c0.11453,3.11316 0.83357,6.45599 2.68321,10.21985c-4.77785,11.0423 -7.93115,22.55878 -9.90417,34.36865l21.62344,-1.02594l33.38219,-28.84439c-23.55246,-0.63657 -34.88223,-1.56229 -47.78467,-14.71817z" id="path3876" />
<g id="lefteye">
<path fill="#000000" d="m295.13516,391.87347c-7.12671,-10.52744 -32.75253,-16.55597 -39.89281,-15.98428c11.43559,-2.44208 18.95674,0.75363 29.3123,4.96054c-15.08252,-8.57309 -28.38116,-12.67102 -37.88104,-12.29929c-14.43184,0.56467 -34.13597,-0.06073 -35.17416,17.71082c-2.13617,2.94302 -4.47926,5.47208 -7.21535,7.2153c2.8076,0.85345 4.70032,0.79202 6.31342,0.45096c-1.01875,2.11285 -3.34097,3.89984 -6.7644,5.41153c0,0 11.88774,11.92688 19.39124,15.33258c7.51715,3.4119 14.08519,3.92706 22.32239,3.38217c7.25719,-0.48007 18.03838,-4.28412 18.03838,-4.28412c7.974,-2.60022 22.27261,-2.09421 30.27798,-3.41141c10.79553,-1.77628 5.06628,-12.88 1.27206,-18.4848z" id="path3851" />
<path fill="#eef2f4" d="m258.85007,379.0459c38.6423,3.16785 37.89136,21.60422 37.655,22.77338c-0.60922,3.01349 -6.98422,3.67142 -14.99506,4.9733c-7.31445,1.18869 -16.03015,3.13925 -22.20895,3.36945c-7.03375,0.26208 -15.47864,-0.21179 -21.87152,-3.15671c-7.37988,-3.3996 -12.00073,-8.7215 -12.16434,-11.96234c-0.51112,-10.11942 27.30907,-16.51154 33.58487,-15.99707z" id="path3864" />
<path fill="#000000" d="m257.42953,379.02112c-2.7047,0.10355 -7.17079,0.88391 -11.91594,2.16931c-1.67809,2.89029 -2.64406,6.24399 -2.64406,9.8262c0,9.46002 6.67078,17.33411 15.58655,19.17636c0.01263,0.00256 0.02652,-0.00253 0.03915,0c0.26266,-0.00757 0.5303,-0.03027 0.78918,-0.03915c3.30823,-0.12372 7.3627,-0.73105 11.52197,-1.45966c6.64429,-3.13901 11.24548,-9.84131 11.24548,-17.67755c0,-2.62006 -0.52786,-5.13406 -1.45969,-7.41827c-5.3096,-2.10489 -12.35663,-3.7691 -21.74213,-4.53809c-0.39267,-0.03284 -0.8725,-0.06061 -1.42053,-0.03915l0,0z" id="path3866" />
<path fill="#800000" d="m257.42953,379.02112c-1.95081,0.07452 -4.82468,0.47983 -8.04959,1.18317c-2.41678,2.92944 -3.86635,6.71747 -3.86635,10.81235c0,9.35776 7.56978,16.92752 16.92754,16.92752c9.35776,0 16.96667,-7.56976 16.96667,-16.92752c0,-3.17059 -0.89145,-6.14423 -2.40668,-8.68097c-4.79562,-1.50259 -10.73657,-2.668 -18.15106,-3.27539c-0.39267,-0.03284 -0.8725,-0.06061 -1.42053,-0.03915l0,0z" id="path3868" />
<path fill="#000000" id="path3870" d="m268.53455,390.99631c0,3.35614 -2.7207,6.07684 -6.07684,6.07684c-3.35614,0 -6.07684,-2.7207 -6.07684,-6.07684c0,-3.35614 2.7207,-6.07684 6.07684,-6.07684c3.35614,0 6.07684,2.7207 6.07684,6.07684z" />
<path fill="#e6e6e6" d="m269.98871,401.41324c0,3.00735 -2.13766,5.44528 -4.77463,5.44528c-2.63693,0 -4.7746,-2.43793 -4.7746,-5.44528c0,-3.00735 2.13766,-5.44531 4.7746,-5.44531c2.63696,0 4.77463,2.43796 4.77463,5.44531z" id="path3872" />
<path fill="#e6e6e6" id="path3874" d="m273.73288,392.62796c-1.42383,2.64893 -3.89975,4.08591 -5.53012,3.20956c-1.63037,-0.87634 -1.79782,-3.73416 -0.37399,-6.38309c1.42383,-2.64893 3.89978,-4.08591 5.53015,-3.20956c1.63037,0.87634 1.79779,3.73416 0.37396,6.38309z" />
</g>
<g id="nose">
<path fill="#be5025" d="m365.27618,520.64685c4.44235,-3.82623 2.90085,-3.03607 6.12338,-4.89935c7.58966,-4.38852 13.00537,-2.85175 12.81686,1.29163c-0.17023,3.7431 -3.83774,3.53479 -9.4137,3.1037c-3.47162,-0.26843 -4.31436,0.00372 -9.52655,0.50403z" id="path3882" />
<path fill="#be5025" d="m326.49377,526.50934c-4.97968,-3.93665 -4.59265,-6.37604 -11.72491,-11.27399c-4.05215,-2.78278 -8.00195,4.00549 -2.25476,5.86237c9.90509,3.20044 8.26245,3.80225 13.97968,5.41162z" id="path3886" />
</g>
<g id="mouth">
<path fill="#f13030" d="m281.39795,588.29059c0,0 17.57993,1.57172 26.15558,0c9.17188,-1.68115 16.87314,-9.03497 26.15558,-9.92108c6.98669,-0.66699 13.75296,4.22656 20.74405,3.60767c7.01041,-0.62054 12.8497,-6.41852 19.84216,-7.21539c14.74588,-1.6803 29.3801,4.508 44.19391,5.4115c12.00327,0.73212 36.07669,0 36.07669,0c-28.14771,31.78693 -36.59891,53.2702 -85.67801,59.57843c-49.0791,6.30817 -65.58652,-23.83295 -87.48996,-51.46112z" id="path3890" />
<path fill="#9a3d3d" d="m295.82861,592.80011c0,0 14.53876,0.42206 21.64603,1.80389c8.96094,1.74213 17.04785,7.49805 26.15552,8.11713c5.47354,0.37225 10.75177,-2.51318 16.23456,-2.70569c6.33807,-0.2226 12.63901,2.52148 18.94025,1.80389c3.77832,-0.43042 7.13409,-2.68372 10.82297,-3.60779c12.12982,-3.03815 24.99887,-2.72864 36.97855,-6.31335c5.03009,-1.50519 14.43069,-6.31342 14.43069,-6.31342c0,0 -6.65121,6.40479 -10.82297,8.11725c-12.35056,5.0697 -26.85776,1.70825 -39.68436,5.4115c-3.49011,1.00775 -6.40427,3.59943 -9.92105,4.50964c-7.29956,1.88898 -15.01392,1.50293 -22.54794,1.80377c-5.70758,0.22803 -11.49316,0.8847 -17.13638,0c-8.73535,-1.36945 -16.72546,-5.78235 -25.25366,-8.11719c-6.54199,-1.79114 -19.84219,-4.50964 -19.84219,-4.50964z" id="path3892" />
<path fill="#f78282" d="m341.82632,620.75952c11.05255,-4.01593 23.93893,0.76483 35.17468,-2.70575c10.93814,-3.3786 29.76331,-17.13641 29.76331,-17.13641c0,0 -7.73016,20.00989 -15.33261,27.05743c-4.1424,3.84009 -9.88837,5.71014 -15.33261,7.21545c-8.73636,2.41547 -18.08755,4.00928 -27.05743,2.70569c-7.07184,-1.02789 -19.84216,-8.11731 -19.84216,-8.11731c0,0 7.76535,-7.25269 12.62683,-9.0191z" id="path3894" />
<path fill="#f78282" d="m324.68991,594.604c0,0 12.94815,-1.28394 18.94025,-3.60767c4.27859,-1.6593 7.34366,-5.84998 11.72491,-7.21527c5.46097,-1.70197 20.52667,-2.82104 26.15558,-1.80389c7.4198,1.3407 11.72491,9.92102 11.72491,9.92102c0,0 -11.29733,3.61896 -17.13638,4.5097c-6.54517,0.99829 -13.24756,0.31342 -19.84219,0.90186c-4.53152,0.4043 -8.98645,2.05939 -13.52875,1.80377c-6.18802,-0.34814 -18.03833,-4.50952 -18.03833,-4.50952z" id="path3896" />
</g>
<path id="hair2" fill="#000000" d="m355.28625,169.68344c-70.59534,24.94432 -131.0779,48.81915 -169.64275,126.27463c0,0 0.61238,31.29306 0.15529,48.31531c-1.75383,65.26178 43.3719,81.32687 90.40561,90.71494c-31.40045,8.06729 -32.75778,8.98904 -61.22371,0c23.52124,21.71942 26.59711,21.6424 56.12117,28.06058c-30.62006,6.96753 -43.7267,-3.29684 -68.87679,-19.13214c19.05006,36.30594 14.8756,38.10147 10.20374,77.80524c-7.04079,-51.35205 -22.27374,-71.42871 -59.94843,-102.03992c-30.61629,-24.87613 -32.057,-68.29349 -30.61124,-104.59055c2.13648,-53.65143 21.98586,-110.14766 57.39651,-150.50929c44.28864,-50.47829 170.91806,-95.66341 177.29584,-95.66341c6.37662,0 218.11081,24.23469 218.11081,24.23469l62.49908,88.01027c0,0 0,156.88582 0,161.98836c0,5.10248 17.85681,116.07083 17.85681,116.07083c-24.21191,2.01276 -42.43878,-25.90015 -59.94843,-57.39777c-15.71021,-41.92865 -41.18494,-70.46149 -43.36676,-127.54993c-1.03418,-27.06436 -19.18903,-52.3761 -62.49905,-58.67305c-49.96817,-7.26552 -93.75931,-21.66515 -133.9277,-45.91878l0,0 Z" />
</g>
</svg>