<?xml version="1.0" encoding="utf-8" standalone="no"?>
<!DOCTYPE svg PUBLIC "-//W3C//DTD SVG 1.1//EN" "http://www.w3.org/Graphics/SVG/1.1/DTD/svg11-flat-20030114.dtd">
<!-- Created by SVGDeveloper 1.0 -->
<svg width="200" height="200" version="1.1" xmlns="http://www.w3.org/2000/svg" xmlns:xlink="http://www.w3.org/1999/xlink">
	<g id="hair" transform="matrix(0.446,0,0,0.442,-51.27758,-39.73814)">
		<path id="hairInner" d="M 226.50244,277.19087 C 226.50244,277.19087 203.86961,226.64346 226.66180,178.24169 C 246.35215,136.42702 303.89294,122.58275 334.84950,122.58275 C 363.59195,122.58275 419.45185,126.30607 439.75942,183.45101 C 459.06274,237.77003 440.38077,276.94002 440.38077,276.94002 C 440.38077,276.94002 435.84401,280.49004 430.85811,285.85162 C 425.93455,270.55127 424.47201,221.19912 424.47201,221.19912 C 424.47201,221.19912 408.05883,232.28910 415.24444,216.82829 C 395.25864,192.10520 408.15146,186.06990 395.21736,210.80720 C 379.20725,185.33319 373.76212,186.01406 370.18191,180.10801 C 365.27352,186.41163 356.41505,187.65697 352.40633,202.97897 C 337.63158,147.61516 349.56764,186.70122 324.65692,191.47827 C 328.96829,180.65571 312.35216,168.39409 306.41842,189.06424 C 286.12997,179.51011 284.97072,164.41618 274.29732,198.01026 C 265.67459,170.18080 264.10355,196.30716 251.80777,209.16329 C 241.80955,219.61716 251.53080,249.76218 241.73919,241.21293 C 232.20693,232.89012 236.55049,288.29192 236.55049,288.29192 L 226.50244,277.19087 z " sodipodi:nodetypes="csssccccccccccszcc" style="fill:#71270a;fill-opacity:1.0000000;fill-rule:evenodd;stroke:#000000;stroke-width:2.8370000;stroke-linecap:butt;stroke-linejoin:miter;stroke-opacity:1.0000000;stroke-miterlimit:4.0000000;stroke-dasharray:none" xmlns:sodipodi="http://inkscape.sourceforge.net/DTD/sodipodi-0.dtd" />
	</g>

</svg>