<?xml version="1.0" encoding="utf-8" standalone="no"?>
<!DOCTYPE svg PUBLIC "-//W3C//DTD SVG 1.1//EN" "http://www.w3.org/Graphics/SVG/1.1/DTD/svg11-flat-20030114.dtd">
<!-- Created by SVGDeveloper 1.0 -->
<svg width="200" height="200" version="1.1" xmlns="http://www.w3.org/2000/svg" xmlns:xlink="http://www.w3.org/1999/xlink">
	<g id="hair" transform="matrix(0.446,0,0,0.442,-51.27758,-39.73814)">
		<path id="hairInner" d="M226.5024 277.1909C226.5024 277.1909 203.8696 226.6435 226.6618 178.2417C246.3522 136.427 303.8929 122.5827 334.8495 122.5827C363.5919 122.5827 419.4518 126.3061 439.7594 183.451C459.0627 237.77 440.3808 276.94 440.3808 276.94C440.3808 276.94 435.844 280.4901 430.8581 285.8516C425.9345 270.5513 424.472 221.1991 424.472 221.1991C424.472 221.1991 405.9929 250.1625 413.1785 234.7017C393.1927 209.9786 401.449 209.9644 388.5148 234.7017C372.5047 209.2277 374.1579 215.7209 370.5777 209.8148C365.6693 216.1184 345.4383 210.3299 341.4296 225.6519C326.6548 170.2881 328.2238 211.825 303.313 216.6021C307.6245 205.7795 304.7625 209.5066 298.8287 230.1768C278.5403 220.6227 287.0806 194.3203 276.4072 227.9144C267.7844 200.0849 268.5237 230.8953 256.2279 243.7515C246.2297 254.2053 251.5308 249.7622 241.7392 241.2129C232.2069 232.8901 236.5505 288.2919 236.5505 288.2919L226.5024 277.1909Z" sodipodi:nodetypes="csssccccccccccszcc" style="fill:#71270a;fill-opacity:1.0000000;fill-rule:evenodd;stroke:#000000;stroke-width:2.8370000;stroke-linecap:butt;stroke-linejoin:miter;stroke-opacity:1.0000000;stroke-miterlimit:4.0000000;stroke-dasharray:none" xmlns:sodipodi="http://inkscape.sourceforge.net/DTD/sodipodi-0.dtd" xmlns="http://www.w3.org/2000/svg" />
	</g>

</svg>